<svg width="42" height="42" viewBox="0 0 42 42" fill="none" xmlns="http://www.w3.org/2000/svg">
<ellipse cx="20.5998" cy="20.5995" rx="20.5998" ry="20.5995" fill="#DC2C00"/>
<path d="M20.9733 9C19.9253 9.00045 18.8877 9.20797 17.9202 9.61065C16.9526 10.0133 16.0741 10.6032 15.3353 11.3465C13.8387 12.8518 12.9991 14.8884 13 17.0111C13 19.5558 13.6587 21.407 16.191 24.5087C17.3674 25.8461 18.3981 27.3048 19.2658 28.8603C20.184 30.7306 20.0757 32 20.9733 32C21.8709 32 21.7627 30.7306 22.6809 28.8603C23.5485 27.3048 24.5792 25.8461 25.7556 24.5087C28.2879 21.407 28.9467 19.5556 28.9467 17.0111C28.9475 14.8884 28.1079 12.8518 26.6114 11.3465C25.8725 10.6032 24.9941 10.0133 24.0265 9.61065C23.0589 9.20797 22.0213 9.00045 20.9733 9Z" stroke="white" stroke-width="2"/>
<path d="M20.9733 20.04C22.667 20.04 24.04 18.667 24.04 16.9733C24.04 15.2797 22.667 13.9067 20.9733 13.9067C19.2797 13.9067 17.9067 15.2797 17.9067 16.9733C17.9067 18.667 19.2797 20.04 20.9733 20.04Z" stroke="white" stroke-width="2"/>
</svg>
